
<svg  width="24px" height="24px" viewBox="0 0 24 24" id="magicoon-Regular" xmlns="http://www.w3.org/2000/svg"><defs><style>.cls-1{fill:#fff;}</style></defs><title>globe</title><g id="globe-Regular"><path id="globe-Regular-2" data-name="globe-Regular" class="cls-1" d="M21.188,8.752A9.686,9.686,0,0,0,13.4,2.347a10.081,10.081,0,0,0-2.792,0,9.679,9.679,0,0,0-7.789,6.4,9.663,9.663,0,0,0,0,6.5,9.686,9.686,0,0,0,7.792,6.4,10.072,10.072,0,0,0,1.4.1,9.919,9.919,0,0,0,1.4-.1,9.679,9.679,0,0,0,7.789-6.4,9.663,9.663,0,0,0,0-6.5Zm-1.844-.5H16.3a16.182,16.182,0,0,0-1.443-3.977A8.165,8.165,0,0,1,19.344,8.251ZM20.25,12a8.089,8.089,0,0,1-.321,2.251H16.576A16.454,16.454,0,0,0,16.75,12a16.387,16.387,0,0,0-.173-2.249H19.93A8.09,8.09,0,0,1,20.25,12ZM8.938,14.251A14.862,14.862,0,0,1,8.75,12a14.879,14.879,0,0,1,.188-2.249h6.125A14.976,14.976,0,0,1,15.25,12a14.894,14.894,0,0,1-.188,2.251Zm-4.867,0a8.046,8.046,0,0,1,0-4.5H7.424A16.28,16.28,0,0,0,7.25,12a16.429,16.429,0,0,0,.174,2.251ZM12.849,3.809a14.8,14.8,0,0,1,1.912,4.442H9.238a14.816,14.816,0,0,1,1.913-4.442A8.459,8.459,0,0,1,12,3.75,8.439,8.439,0,0,1,12.849,3.809Zm-3.708.465A16.257,16.257,0,0,0,7.7,8.251H4.656A8.16,8.16,0,0,1,9.141,4.274ZM4.657,15.751H7.7a16.3,16.3,0,0,0,1.442,3.975A8.16,8.16,0,0,1,4.657,15.751Zm6.494,4.44a14.824,14.824,0,0,1-1.912-4.44h5.522a14.806,14.806,0,0,1-1.912,4.44A8.6,8.6,0,0,1,11.151,20.191Zm3.708-.465A16.251,16.251,0,0,0,16.3,15.751h3.042A8.158,8.158,0,0,1,14.859,19.726Z"/></g></svg>